<?xml version="1.0" encoding="UTF-8" standalone="no"?>
<!-- Created with Inkscape (http://www.inkscape.org/) -->

<svg
   width="52.121719mm"
   height="52.577713mm"
   viewBox="0 0 52.121721 52.577714"
   version="1.1"
   id="svg1554"
   inkscape:version="1.1.2 (0a00cf5339, 2022-02-04, custom)"
   sodipodi:docname="Favicon_speleo_site.svg"
   inkscape:export-filename="/home/joel/Téléchargements/Cage speleonautes.png"
   inkscape:export-xdpi="96"
   inkscape:export-ydpi="96"
   xmlns:inkscape="http://www.inkscape.org/namespaces/inkscape"
   xmlns:sodipodi="http://sodipodi.sourceforge.net/DTD/sodipodi-0.dtd"
   xmlns:xlink="http://www.w3.org/1999/xlink"
   xmlns="http://www.w3.org/2000/svg"
   xmlns:svg="http://www.w3.org/2000/svg">
  <sodipodi:namedview
     id="namedview1556"
     pagecolor="#ffffff"
     bordercolor="#666666"
     borderopacity="1.0"
     inkscape:pageshadow="2"
     inkscape:pageopacity="0.0"
     inkscape:pagecheckerboard="0"
     inkscape:document-units="mm"
     showgrid="false"
     fit-margin-top="0"
     fit-margin-left="0"
     fit-margin-right="0"
     fit-margin-bottom="0"
     inkscape:zoom="0.32026164"
     inkscape:cx="215.44884"
     inkscape:cy="48.397929"
     inkscape:window-width="2048"
     inkscape:window-height="1070"
     inkscape:window-x="1920"
     inkscape:window-y="27"
     inkscape:window-maximized="1"
     inkscape:current-layer="layer1"
     showguides="true"
     inkscape:guide-bbox="true" />
  <defs
     id="defs1551">
    <radialGradient
       inkscape:collect="always"
       xlink:href="#linearGradient10904"
       id="radialGradient12254"
       gradientUnits="userSpaceOnUse"
       gradientTransform="matrix(0.42726074,-0.00242902,0.01899924,0.29595319,-40.712682,468.02776)"
       cx="164.50795"
       cy="-257.52441"
       fx="164.50795"
       fy="-257.52441"
       r="117.87038" />
    <linearGradient
       inkscape:collect="always"
       id="linearGradient10904">
      <stop
         style="stop-color:#ffffff;stop-opacity:0.99998003"
         offset="0"
         id="stop10902" />
      <stop
         style="stop-color:#ffffff;stop-opacity:0.57254902;"
         offset="0.12300691"
         id="stop13755" />
      <stop
         style="stop-color:#ffffff;stop-opacity:0.15326652"
         offset="0.40284809"
         id="stop13433" />
      <stop
         style="stop-color:#ffffff;stop-opacity:0"
         offset="1"
         id="stop10900" />
    </linearGradient>
  </defs>
  <g
     inkscape:label="Calque 1"
     inkscape:groupmode="layer"
     id="layer1"
     transform="translate(2.5464478,-366.66302)">
    <circle
       style="fill:#000000;fill-opacity:0.991855;stroke-width:0.0756229;stroke-linecap:round;stroke-dasharray:0.0756229, 0.0756229;stop-color:#000000"
       id="path1000"
       cx="23.514412"
       cy="392.95187"
       r="26.06086" />
    <path
       style="fill:none;stroke:#ffffff;stroke-width:0.973931;stroke-linecap:butt;stroke-linejoin:miter;stroke-miterlimit:4;stroke-dasharray:none;stroke-opacity:1"
       d="m 23.571602,367.19288 -0.11438,21.9395"
       id="path7078"
       sodipodi:nodetypes="cc" />
    <path
       id="rect7201"
       style="fill:#ffffff;stroke:none;stroke-width:0.86324;stroke-miterlimit:4;stroke-dasharray:none;stroke-opacity:1;stop-color:#000000"
       d="m 11.895287,388.82822 c -0.57765,0 -1.04275,0.4651 -1.04275,1.04275 v 23.09524 c 0,0.57764 0.4651,1.04275 1.04275,1.04275 h 23.23825 c 0.57764,0 1.04275,-0.46511 1.04275,-1.04275 v -23.09524 c 0,-0.57765 -0.46511,-1.04275 -1.04275,-1.04275 z m 0.46964,1.80921 h 3.808136 c 0.1317,0 0.23763,0.10593 0.23763,0.23763 v 17.06014 c 0,0.1317 -0.10593,0.23784 -0.23763,0.23784 h -3.808136 c -0.1317,0 -0.23763,-0.10614 -0.23763,-0.23784 v -17.06014 c 0,-0.1317 0.10593,-0.23763 0.23763,-0.23763 z m 4.829646,0 5.748992,-0.002 c 0.13169,-5e-5 0.23784,0.10593 0.23784,0.23763 v 17.06014 c 0,0.1317 -0.10615,0.23779 -0.23784,0.23784 l -5.748992,0.002 c -0.13171,4e-5 -0.23785,-0.10614 -0.23785,-0.23784 v -17.06014 c 0,-0.1317 0.10614,-0.23759 0.23785,-0.23763 z m 6.770492,-0.002 5.571239,0.002 c 0.1317,5e-5 0.23763,0.10593 0.23763,0.23763 v 17.06014 c 0,0.1317 -0.10593,0.23789 -0.23763,0.23784 l -5.571239,-0.002 c -0.13171,-5e-5 -0.23763,-0.10614 -0.23763,-0.23784 v -17.06014 c 0,-0.1317 0.10592,-0.23768 0.23763,-0.23763 z m 6.592748,0.002 h 3.807927 c 0.13169,0 0.23784,0.10593 0.23784,0.23763 v 17.06014 c 0,0.1317 -0.10615,0.23784 -0.23784,0.23784 h -3.807927 c -0.13171,0 -0.23784,-0.10614 -0.23784,-0.23784 v -17.06014 c 0,-0.1317 0.10613,-0.23763 0.23784,-0.23763 z"
       sodipodi:nodetypes="sssssssssssssssssssssssssssssssssssssssssssss" />
    <ellipse
       style="fill:url(#radialGradient12254);fill-opacity:1;stroke:none;stroke-width:0.532339;stroke-miterlimit:4;stroke-dasharray:none;stroke-opacity:1;stop-color:#000000"
       id="path9065"
       cx="23.667551"
       cy="392.91324"
       rx="26.117388"
       ry="26.022978" />
  </g>
</svg>
